<?xml version="1.0" encoding="UTF-8" standalone="no"?>
<!-- Generator: Adobe Illustrator 19.0.0, SVG Export Plug-In . SVG Version: 6.00 Build 0)  -->

<svg
   xmlns:dc="http://purl.org/dc/elements/1.1/"
   xmlns:cc="http://creativecommons.org/ns#"
   xmlns:rdf="http://www.w3.org/1999/02/22-rdf-syntax-ns#"
   xmlns:svg="http://www.w3.org/2000/svg"
   xmlns="http://www.w3.org/2000/svg"
   xmlns:sodipodi="http://sodipodi.sourceforge.net/DTD/sodipodi-0.dtd"
   xmlns:inkscape="http://www.inkscape.org/namespaces/inkscape"
   version="1.1"
   id="Layer_1"
   x="0px"
   y="0px"
   viewBox="0 0 512.035 512.035"
   style="enable-background:new 0 0 512.035 512.035;"
   xml:space="preserve"
   sodipodi:docname="AddFeeder.svg"
   inkscape:version="0.92.3 (2405546, 2018-03-11)"><metadata
   id="metadata49"><rdf:RDF><cc:Work
       rdf:about=""><dc:format>image/svg+xml</dc:format><dc:type
         rdf:resource="http://purl.org/dc/dcmitype/StillImage" /><dc:title></dc:title></cc:Work></rdf:RDF></metadata><defs
   id="defs47">
	
	
	
	
	
</defs><sodipodi:namedview
   pagecolor="#ffffff"
   bordercolor="#666666"
   borderopacity="1"
   objecttolerance="10"
   gridtolerance="10"
   guidetolerance="10"
   inkscape:pageopacity="0"
   inkscape:pageshadow="2"
   inkscape:window-width="716"
   inkscape:window-height="480"
   id="namedview45"
   showgrid="false"
   inkscape:zoom="0.46090602"
   inkscape:cx="256.01749"
   inkscape:cy="256.01749"
   inkscape:window-x="958"
   inkscape:window-y="151"
   inkscape:window-maximized="0"
   inkscape:current-layer="Layer_1" />
<polygon
   id="polygon2"
   points="326.103,255.035 460.076,24.635 50.476,255.035 460.076,485.435 "
   style="fill:#fcb040;fill-opacity:1"
   transform="translate(1,1)" /><polygon
   id="polygon4"
   points="391.809,447.035 50.476,255.035 391.809,63.035 7.809,255.035 "
   style="fill:#ffffff"
   transform="translate(1,1)" /><polygon
   id="polygon6"
   points="456.663,479.461 502.743,502.501 340.609,255.035 502.743,7.568 456.663,30.608 326.103,255.035 "
   style="fill:#ffa800"
   transform="translate(1,1)" /><path
   inkscape:connector-curvature="0"
   id="path8"
   d="m 503.743,512.035 c -1.707,0 -2.56,0 -3.413,-0.853 L 5.396,263.715 c -3.413,-1.707 -5.12,-4.267 -5.12,-7.68 0,-3.413 1.707,-5.973 5.12,-7.68 L 500.329,0.888 c 3.413,-1.707 6.827,-0.853 9.387,1.707 2.56,2.56 2.56,6.827 0.853,10.24 l -158.72,243.2 81.067,123.733 c 2.56,4.267 1.707,9.387 -2.56,11.947 -4.267,2.56 -9.387,1.707 -11.947,-2.56 l -83.627,-128 c -1.707,-2.56 -1.707,-6.827 0,-9.387 L 479.849,30.755 27.583,256.035 478.996,481.315 451.689,439.502 c -2.56,-4.267 -1.707,-9.387 2.56,-11.947 4.267,-2.56 9.387,-1.707 11.947,2.56 l 44.373,68.267 c 1.707,3.413 1.707,7.68 -0.853,10.24 -0.853,2.559 -3.413,3.413 -5.973,3.413 z"
   style="fill:#37464c;fill-opacity:1" /><path
   inkscape:connector-curvature="0"
   id="path10"
   d="m 435.476,409.635 c 0,5.12 3.413,8.533 8.533,8.533 5.12,0 8.533,-3.413 8.533,-8.533 0,-5.12 -3.413,-8.533 -8.533,-8.533 -5.12,0 -8.533,3.413 -8.533,8.533" />
<g
   id="g14">
</g>
<g
   id="g16">
</g>
<g
   id="g18">
</g>
<g
   id="g20">
</g>
<g
   id="g22">
</g>
<g
   id="g24">
</g>
<g
   id="g26">
</g>
<g
   id="g28">
</g>
<g
   id="g30">
</g>
<g
   id="g32">
</g>
<g
   id="g34">
</g>
<g
   id="g36">
</g>
<g
   id="g38">
</g>
<g
   id="g40">
</g>
<g
   id="g42">
</g>
</svg>