<?xml version="1.0" encoding="UTF-8" standalone="no"?>
<svg
   xmlns:dc="http://purl.org/dc/elements/1.1/"
   xmlns:cc="http://creativecommons.org/ns#"
   xmlns:rdf="http://www.w3.org/1999/02/22-rdf-syntax-ns#"
   xmlns:svg="http://www.w3.org/2000/svg"
   xmlns="http://www.w3.org/2000/svg"
   xmlns:sodipodi="http://sodipodi.sourceforge.net/DTD/sodipodi-0.dtd"
   xmlns:inkscape="http://www.inkscape.org/namespaces/inkscape"
   viewBox="0 0 21.44286 25.187916"
   version="1.1"
   id="svg15"
   sodipodi:docname="play.svg"
   width="21.44286"
   height="25.187916"
   inkscape:version="0.92.3 (2405546, 2018-03-11)">
  <metadata
     id="metadata19">
    <rdf:RDF>
      <cc:Work
         rdf:about="">
        <dc:format>image/svg+xml</dc:format>
        <dc:type
           rdf:resource="http://purl.org/dc/dcmitype/StillImage" />
        <dc:title>pause</dc:title>
      </cc:Work>
    </rdf:RDF>
  </metadata>
  <sodipodi:namedview
     pagecolor="#ffffff"
     bordercolor="#666666"
     borderopacity="1"
     objecttolerance="10"
     gridtolerance="10"
     guidetolerance="10"
     inkscape:pageopacity="0"
     inkscape:pageshadow="2"
     inkscape:window-width="2560"
     inkscape:window-height="1377"
     id="namedview17"
     showgrid="false"
     inkscape:zoom="29.667058"
     inkscape:cx="25.731928"
     inkscape:cy="5.4670647"
     inkscape:window-x="-8"
     inkscape:window-y="-8"
     inkscape:window-maximized="1"
     inkscape:current-layer="svg15" />
  <defs
     id="defs4">
    <style
       id="style2">.cls-1{fill:none;}.cls-2{fill:#fcb040;}.cls-3{fill:#4f868e;}</style>
  </defs>
  <title
     id="title6">pause</title>
  <rect
     style="fill:none"
     y="-32.638279"
     x="-35.168919"
     id="rect8"
     ry="45"
     rx="45"
     height="90"
     width="90"
     class="cls-1" />
  <g
     id="g26"
     transform="translate(-35.168919,-32.638277)">
    <path
       class="cls-2"
       d="M 55.05,48.62 47.62,53 40.18,57.4 a 3.07,3.07 0 0 1 -4.62,-2.39 3.05,3.05 0 0 0 4.24,1.21 l 7.43,-4.42 7.45,-4.43 a 3.19,3.19 0 0 0 1.51,-3.12 3.24,3.24 0 0 1 -1.14,4.37 z"
       id="path10"
       inkscape:connector-curvature="0"
       style="fill:#4f868e" />
    <path
       class="cls-3"
       d="m 56.19,44.29 a 3.19,3.19 0 0 1 -1.51,3.12 l -7.45,4.43 -7.43,4.42 a 3.05,3.05 0 0 1 -4.24,-1.21 v 0 A 3.18,3.18 0 0 1 35.17,53.5 V 35.81 a 3.09,3.09 0 0 1 4.63,-2.76 l 7.43,4.42 7.45,4.43 a 3.09,3.09 0 0 1 1.51,2.39 z"
       id="path12"
       inkscape:connector-curvature="0"
       style="fill:#fcb040" />
  </g>
</svg>
