<?xml version="1.0" encoding="UTF-8" standalone="no"?>
<svg
   xmlns:dc="http://purl.org/dc/elements/1.1/"
   xmlns:cc="http://creativecommons.org/ns#"
   xmlns:rdf="http://www.w3.org/1999/02/22-rdf-syntax-ns#"
   xmlns:svg="http://www.w3.org/2000/svg"
   xmlns="http://www.w3.org/2000/svg"
   xmlns:sodipodi="http://sodipodi.sourceforge.net/DTD/sodipodi-0.dtd"
   xmlns:inkscape="http://www.inkscape.org/namespaces/inkscape"
   viewBox="0 0 46 46"
   version="1.1"
   id="svg12"
   sodipodi:docname="Off.svg"
   width="46"
   height="46"
   inkscape:version="0.92.3 (2405546, 2018-03-11)">
  <metadata
     id="metadata18">
    <rdf:RDF>
      <cc:Work
         rdf:about="">
        <dc:format>image/svg+xml</dc:format>
        <dc:type
           rdf:resource="http://purl.org/dc/dcmitype/StillImage" />
        <dc:title>on</dc:title>
      </cc:Work>
    </rdf:RDF>
  </metadata>
  <defs
     id="defs16" />
  <sodipodi:namedview
     pagecolor="#ffffff"
     bordercolor="#666666"
     borderopacity="1"
     objecttolerance="10"
     gridtolerance="10"
     guidetolerance="10"
     inkscape:pageopacity="0"
     inkscape:pageshadow="2"
     inkscape:window-width="2560"
     inkscape:window-height="1377"
     id="namedview14"
     showgrid="false"
     inkscape:zoom="17.918903"
     inkscape:cx="1.3545337"
     inkscape:cy="19.976025"
     inkscape:window-x="-8"
     inkscape:window-y="-8"
     inkscape:window-maximized="1"
     inkscape:current-layer="Layer_1-2" />
  <title
     id="title2">on</title>
  <g
     id="Layer_2"
     data-name="Layer 2"
     transform="translate(-31.57,-22)">
    <g
       id="Layer_1-2"
       data-name="Layer 1">
      <rect
         width="90"
         height="90"
         rx="45"
         style="fill:none"
         id="rect4"
         x="0"
         y="0" />
      <path
         d="m 55.332712,22.09322 a 13,13 0 0 0 -13,13 v 20 a 13,13 0 0 0 26,0 v -20 a 13,13 0 0 0 -13,-13 z m 8.14,35.35 a 8.26,8.26 0 1 1 -9.54,-9.54 8.25,8.25 0 0 1 9.54,9.54 z m 0,-22.24 a 8.26,8.26 0 1 1 -9.54,-9.54 8.25,8.25 0 0 1 9.54,9.54 z"
         style="fill:#000000;fill-opacity:1"
         id="path6"
         inkscape:connector-curvature="0" />
      <circle
         cx="55.511738"
         cy="55.881012"
         r="7.27"
         style="fill:#ff0000"
         id="circle8-5" />
    </g>
  </g>
</svg>
