<?xml version="1.0" encoding="UTF-8" standalone="no"?>
<svg
   xmlns:dc="http://purl.org/dc/elements/1.1/"
   xmlns:cc="http://creativecommons.org/ns#"
   xmlns:rdf="http://www.w3.org/1999/02/22-rdf-syntax-ns#"
   xmlns:svg="http://www.w3.org/2000/svg"
   xmlns="http://www.w3.org/2000/svg"
   xmlns:sodipodi="http://sodipodi.sourceforge.net/DTD/sodipodi-0.dtd"
   xmlns:inkscape="http://www.inkscape.org/namespaces/inkscape"
   viewBox="0 0 41.791252 44.394955"
   version="1.1"
   id="svg24"
   sodipodi:docname="Copy.svg"
   width="41.791252"
   height="44.394955"
   inkscape:version="0.92.3 (2405546, 2018-03-11)">
  <metadata
     id="metadata30">
    <rdf:RDF>
      <cc:Work
         rdf:about="">
        <dc:format>image/svg+xml</dc:format>
        <dc:type
           rdf:resource="http://purl.org/dc/dcmitype/StillImage" />
        <dc:title>motor_copy</dc:title>
      </cc:Work>
    </rdf:RDF>
  </metadata>
  <defs
     id="defs28" />
  <sodipodi:namedview
     pagecolor="#ffffff"
     bordercolor="#666666"
     borderopacity="1"
     objecttolerance="10"
     gridtolerance="10"
     guidetolerance="10"
     inkscape:pageopacity="0"
     inkscape:pageshadow="2"
     inkscape:window-width="2560"
     inkscape:window-height="1377"
     id="namedview26"
     showgrid="false"
     fit-margin-top="0"
     fit-margin-left="0"
     fit-margin-right="0"
     fit-margin-bottom="0"
     inkscape:zoom="20.977778"
     inkscape:cx="12.688529"
     inkscape:cy="32.466925"
     inkscape:window-x="-8"
     inkscape:window-y="-8"
     inkscape:window-maximized="1"
     inkscape:current-layer="svg24" />
  <title
     id="title2">motor_copy</title>
  <path
     d="m 39.71,14.034953 q -0.09,-0.39 -0.21,-0.78 c 0,0 0,0 0,0 a 17,17 0 0 0 -1.21,-3.08 l -3.59,0.4 H 34.45 A 12.28,12.28 0 0 0 33.07,8.6749531 l 0.55,-1.15 1.08,-2.43 a 18,18 0 0 0 -4.23,-3 l -1.45,1.33 -1.39,1.27 a 17.42,17.42 0 0 0 -2.25,-0.74 l -0.28,-1.33 -0.5,-2.43000004 a 17.77,17.77 0 0 0 -5.25,0 L 18.99,1.9549531 a 17.24,17.24 0 0 1 4.06,0.13 l 0.5,2.43 0.28,1.33 a 17.42,17.42 0 0 1 2.25,0.74 l 1.39,-1.27 1.45,-1.33 a 18,18 0 0 1 4.23,3 l -1.08,2.43 -0.52,1.1599999 a 12.28,12.28 0 0 1 1.38,1.95 h 0.25 l 3.59,-0.4 a 17,17 0 0 1 1.18,3.06 c 0,0 0,0 0,0 q 0.12,0.39 0.21,0.78 a 1.42,1.42 0 0 1 0,0.2 l 1.73,-1 c -0.02,-0.39 -0.09,-0.76 -0.18,-1.13 z m -23.42,-9.3299999 -2.83,-2.6 -0.2,0.11 a 18.09,18.09 0 0 0 -3.75,2.69 l -0.3,0.28 0.19,0.41 a 16.53,16.53 0 0 1 2.31,-1.49 l 0.2,-0.11 2.83,2.6 0.27,-0.11 0.34,-1.64 c 0.63,-0.09 1.26,-0.16 1.89,-0.19 l 0.08,-0.34 c -0.32,0.12 -0.66,0.21 -1.03,0.39 z"
     style="fill:#fcb040"
     id="path4"
     inkscape:connector-curvature="0" />
  <path
     d="m 15.04,6.5249531 -0.43,2.12 a 14.93,14.93 0 0 0 -2.26,0.74 l -2.12,-1.94 -0.71,-0.66 -0.2,0.11 a 14.43,14.43 0 0 0 -1.36,0.82 l -0.27,-0.6 0.3,-0.28 a 16.35,16.35 0 0 1 1.44,-1.2 16.53,16.53 0 0 1 2.31,-1.49 l 0.2,-0.11 2.83,2.6 z"
     style="fill:#000000;fill-opacity:1"
     id="path6"
     inkscape:connector-curvature="0" />
  <path
     d="m 38.38,17.044953 -1.82,1 -0.85,0.48 q -0.08,-0.33 -0.18,-0.66 c 0,0 0,0 0,0 a 17,17 0 0 0 -1.18,-3.06 l -2.78,0.31 -0.81,0.09 h -0.25 a 12.28,12.28 0 0 0 -1.38,-1.9 l 0.52,-1.16 0.19,-0.44 0.89,-1.9999999 a 18,18 0 0 0 -4.23,-3 l -1.45,1.33 -0.35,0.32 -1,0.95 a 17.42,17.42 0 0 0 -2.25,-0.74 l -0.1,-0.5 -0.18,-0.83 -0.5,-2.43 a 18,18 0 0 0 -3.38,-0.15 l 0.08,-0.34 0.45,-2.22 c 0.4,-0.06 0.79,-0.1 1.19,-0.13 a 17.24,17.24 0 0 1 4.06,0.13 l 0.5,2.43 0.28,1.33 a 17.42,17.42 0 0 1 2.25,0.74 l 1.39,-1.27 1.45,-1.33 a 18,18 0 0 1 4.23,3 l -1.08,2.43 -0.52,1.1599999 a 12.28,12.28 0 0 1 1.36,1.94 h 0.25 l 3.59,-0.4 a 17,17 0 0 1 1.18,3.06 c 0,0 0,0 0,0 q 0.12,0.39 0.21,0.78 a 1.42,1.42 0 0 1 0,0.2 c 0.13,0.26 0.13,0.57 0.22,0.88 z"
     style="fill:#000000;fill-opacity:1"
     id="path8"
     inkscape:connector-curvature="0" />
  <path
     d="m 27.29,33.614953 v 0.1 l -0.2,-0.19 z"
     style="fill:#37464c"
     id="path10"
     inkscape:connector-curvature="0" />
  <path
     d="m 35.74,18.674953 v -0.12 q -0.08,-0.33 -0.18,-0.66 c 0,0 0,0 0,0 a 17,17 0 0 0 -1.18,-3.06 l -2.78,0.31 -0.81,0.09 h -0.25 a 12.28,12.28 0 0 0 -1.38,-1.9 l 0.52,-1.16 0.19,-0.44 0.89,-1.9999999 a 18,18 0 0 0 -4.23,-3 l -1.45,1.33 -0.35,0.32 -1,0.95 a 17.42,17.42 0 0 0 -2.25,-0.74 l -0.1,-0.5 -0.18,-0.83 -0.5,-2.43 a 18,18 0 0 0 -3.41,-0.18 c -0.63,0 -1.26,0.1 -1.89,0.19 l -0.36,1.68 -0.43,2.12 a 14.93,14.93 0 0 0 -2.26,0.74 l -2.12,-1.94 -0.71,-0.66 -0.2,0.11 a 14.43,14.43 0 0 0 -1.36,0.82 17.27,17.27 0 0 0 -2.39,1.81 l -0.3,0.28 0.22,0.4999999 0.93,2.06 0.46,1 a 14.46,14.46 0 0 0 -1.39,1.9 l -1.2,-0.1 H 3.98 l -1.08,-0.13 -1.28,-0.15 a 17.68,17.68 0 0 0 -1.62,5 l 3.17,1.79 0.19,0.11 v 2.36 l -0.68,0.38 -2.68,1.49 a 18.2,18.2 0 0 0 1.62,5 l 3.79,-0.49 a 13.1,13.1 0 0 0 1.37,1.86 l -1.6,3.5 a 18.54,18.54 0 0 0 4.25,3.1 l 2.86,-2.62 a 14.89,14.89 0 0 0 2.26,0.73 l 0.74,3.79 a 19.76,19.76 0 0 0 4.14,0.11 11.92,11.92 0 0 1 -0.66,-1.4 14,14 0 0 1 -1,-5.18 13,13 0 0 1 0.19,-2.25 h -0.37 -0.22 v 0 l -2.73,-0.64 a 9.73,9.73 0 0 1 -4.14,-3.15 9.37,9.37 0 0 1 -0.82,-1.26 c 0,-0.1 -0.1,-0.2 -0.14,-0.3 a 6.71,6.71 0 0 1 -0.36,-0.83 10,10 0 0 1 0.2,-7.65 8.64,8.64 0 0 1 2.27,-3.16 c 0.18,-0.16 0.37,-0.32 0.57,-0.47 v 0 a 7.66,7.66 0 0 1 1,-0.63 8,8 0 0 1 1,-0.5 9.8,9.8 0 0 1 13.65,7.47 14,14 0 0 1 3.87,-0.58 h 0.06 a 14.32,14.32 0 0 1 2.64,0.25 l 0.57,-0.32 1,-0.54 c -0.11,-0.44 -0.18,-0.81 -0.27,-1.18 z"
     style="fill:#4f868e"
     id="path12"
     inkscape:connector-curvature="0" />
  <path
     style="fill:#4f868e;fill-rule:evenodd"
     d="M 31.75 24.414062 A 10.07 10.07 0 0 0 22.25 31.414062 A 9.86 9.86 0 0 0 21.789062 34.414062 A 9.72 9.72 0 0 0 22.099609 36.884766 A 10.05 10.05 0 0 0 31.789062 44.394531 A 10.64 10.64 0 0 0 36.439453 43.304688 A 9.77 9.77 0 0 0 41.789062 34.435547 L 41.789062 34.365234 L 41.75 34.414062 A 10 10 0 0 0 31.75 24.414062 z M 32.109375 28.365234 A 1.49 1.49 0 0 1 33.609375 29.845703 L 33.609375 33.064453 L 36.820312 33.054688 A 1.49 1.49 0 0 1 38.289062 34.525391 A 1.5 1.5 0 0 1 36.789062 36.025391 L 33.630859 36.025391 L 33.630859 39.224609 A 1.5 1.5 0 0 1 32.130859 40.724609 A 1.49 1.49 0 0 1 30.630859 39.244141 L 30.630859 36.044922 L 27.400391 36.044922 A 1.48 1.48 0 0 1 25.900391 34.564453 A 1.51 1.51 0 0 1 27.400391 33.064453 L 30.609375 33.064453 L 30.609375 29.865234 A 1.51 1.51 0 0 1 32.109375 28.365234 z "
     id="path14" />
  <circle
     cx="18.360001"
     cy="22.684954"
     r="5.4400001"
     style="fill:#000000;fill-opacity:1"
     id="circle16" />
  <rect
     width="90"
     height="90"
     rx="45"
     style="fill:none"
     id="rect18"
     x="-23.709999"
     y="-20.475046" />
</svg>
